<svg width="205" height="18" viewBox="0 0 205 18" fill="none" xmlns="http://www.w3.org/2000/svg">
<path d="M15.4336 0.00315431H4.76389L0 11.7593L9.9073 11.7751C11.6508 11.7751 13.2205 10.7404 13.8831 9.14435L16.8296 2.06292C17.2381 1.07878 16.5079 0 15.4304 0L15.4336 0.00315431ZM10.2708 7.88578H5.018L6.87402 3.89242H12.1526L10.274 7.88578H10.2708Z" fill="#D13124"/>
<path d="M22.0326 4.30811C21.5156 4.30811 21.0494 4.62541 20.8591 5.11088L17.0119 14.7917C16.7645 15.4105 17.2181 16.0832 17.8778 16.0832H28.103C28.7247 16.0832 29.286 15.7024 29.5207 15.1217L33.888 4.30811H22.0357H22.0326ZM27.1864 12.2026H22.0072L23.6215 8.18552H28.8261L27.1896 12.2026H27.1864Z" fill="#D13124"/>
<path d="M89.5247 4.30811C89.0077 4.30811 88.5415 4.62541 88.3512 5.11088L84.504 14.7917C84.2567 15.4105 84.7102 16.0832 85.3699 16.0832H95.5951C96.2168 16.0832 96.7781 15.7024 97.0128 15.1217L101.38 4.30811H89.5279H89.5247ZM94.6785 12.2026H89.4993L91.1137 8.18552H96.3183L94.6817 12.2026H94.6785Z" fill="#D13124"/>
<path d="M45.0995 4.97933L44.3477 6.73266H46.6701C46.8677 6.73266 46.9951 6.93763 46.9091 7.11423L46.0808 8.79818H41.0599L43.548 2.80028H52.5512L53.7045 0H41.8914C41.2956 0 40.7572 0.362649 40.5374 0.914506L36.1855 11.753L48.4033 11.7751C48.674 11.7751 48.9162 11.6142 49.0181 11.3651L51.7165 4.8185L45.3767 4.79643C45.2556 4.79643 45.1441 4.86896 45.0963 4.97933H45.0995Z" fill="#D13124"/>
<path d="M67.2019 7.14383L68.3524 4.3428L58.0836 4.30811C57.5878 4.30811 57.1428 4.60776 56.9585 5.06829L52.5566 16.0642L62.8859 16.0832C63.3531 16.0832 63.7726 15.7993 63.9442 15.3671L64.6276 13.3294H57.1937L58.2075 11.1971H63.0829L63.8012 9.19729H59.0339L59.8983 7.10914L67.1987 7.14383H67.2019Z" fill="#D13124"/>
<path d="M70.6484 11.7719L75.3075 0H79.0001L75.8741 7.90064H81.8491L80.5993 11.0792C80.4325 11.4999 80.0327 11.7751 79.5856 11.7751H70.6484V11.7719Z" fill="#D13124"/>
<path d="M103.394 11.7499L108.007 0.578225C108.151 0.229405 108.496 0 108.876 0H110.504C111.175 0 111.798 0.351963 112.137 0.927046L114.829 5.468L117.089 0H120.91L116.399 11.1308C116.245 11.5079 115.878 11.7531 115.472 11.7531H113.761C113.186 11.7531 112.652 11.4639 112.342 10.9863L109.356 6.3919L107.163 11.7751L103.391 11.7531L103.394 11.7499Z" fill="#D13124"/>
<path d="M127.271 16.7815L131.589 4.71924H135.814L137.671 8.15501L141.851 4.71924H146.226L141.979 16.7815H137.59L139.908 9.98721L135.879 13.2845L134.039 9.77147L131.506 16.7815H127.271Z" fill="#D13124"/>
<path d="M155.577 1.27295C152.839 1.27295 152.341 3.13697 152.341 3.13697C152.341 3.13697 148.812 12.9254 148.812 13.048H152.988L154.167 10.2001H158.559L157.524 13.048H161.923L166.044 1.27295H155.574H155.577ZM159.686 7.19191H155.246L156.283 4.29372H160.723L159.686 7.19191Z" fill="#D13124"/>
<path d="M181.868 5.5816H170.999L166.617 17.3566H171.041L172.64 13.0043H174.789L177.022 17.3566H181.487L179.254 13.0043C181.57 13.0043 182.328 11.0861 182.328 11.0861C182.328 11.0861 182.709 9.87694 183.422 7.70869C184.139 5.54045 181.864 5.5816 181.864 5.5816H181.868ZM178.413 10.3771H173.631L174.265 8.54117H179.047L178.413 10.3771Z" fill="#D13124"/>
<path d="M187.573 10.1208H196.519L197.067 8.62565H190.271C190.271 8.62565 188.076 8.54364 189.047 6.00757L190.188 2.97628C190.188 2.97628 190.569 1.27295 193.184 1.27295H204.242L203.188 4.18123H194.241L193.652 5.59436H200.361C200.361 5.59436 202.473 5.80254 201.839 7.58788L200.615 11.1617C200.615 11.1617 200.025 13.048 197.535 13.048H186.436L187.576 10.1208H187.573Z" fill="#D13124"/>
</svg>
