<svg width="208" height="20" viewBox="0 0 208 20" fill="none" xmlns="http://www.w3.org/2000/svg">
<g filter="url(#filter0_ddi_2738_74)">
<path d="M17.4336 0.00315431H6.76389L2 11.7593L11.9073 11.7751C13.6508 11.7751 15.2205 10.7404 15.8831 9.14435L18.8296 2.06292C19.2381 1.07878 18.5079 0 17.4304 0L17.4336 0.00315431ZM12.2708 7.88578H7.018L8.87402 3.89242H14.1526L12.274 7.88578H12.2708Z" fill="#D13124"/>
<path d="M24.0335 4.30811C23.5165 4.30811 23.0503 4.62541 22.86 5.11088L19.0128 14.7917C18.7654 15.4105 19.219 16.0832 19.8787 16.0832H30.1039C30.7256 16.0832 31.2869 15.7024 31.5216 15.1217L35.8889 4.30811H24.0366H24.0335ZM29.1873 12.2026H24.0081L25.6224 8.18553H30.827L29.1905 12.2026H29.1873Z" fill="#D13124"/>
<path d="M91.5247 4.30811C91.0077 4.30811 90.5415 4.62541 90.3512 5.11088L86.504 14.7917C86.2567 15.4105 86.7102 16.0832 87.3699 16.0832H97.5951C98.2168 16.0832 98.7781 15.7024 99.0128 15.1217L103.38 4.30811H91.5279H91.5247ZM96.6785 12.2026H91.4993L93.1137 8.18553H98.3183L96.6817 12.2026H96.6785Z" fill="#D13124"/>
<path d="M47.1005 4.97933L46.3487 6.73266H48.6711C48.8687 6.73266 48.9961 6.93763 48.9101 7.11423L48.0818 8.79818H43.0609L45.549 2.80028H54.5522L55.7055 0H43.8924C43.2966 0 42.7582 0.362649 42.5384 0.914506L38.1865 11.753L50.4043 11.7751C50.675 11.7751 50.9172 11.6142 51.0191 11.3651L53.7175 4.8185L47.3777 4.79643C47.2566 4.79643 47.1451 4.86896 47.0973 4.97933H47.1005Z" fill="#D13124"/>
<path d="M69.2019 7.14383L70.3524 4.3428L60.0836 4.30811C59.5878 4.30811 59.1428 4.60776 58.9585 5.06829L54.5566 16.0642L64.8859 16.0832C65.3531 16.0832 65.7726 15.7993 65.9442 15.3671L66.6276 13.3294H59.1937L60.2075 11.1971H65.0829L65.8012 9.19729H61.0339L61.8983 7.10914L69.1987 7.14383H69.2019Z" fill="#D13124"/>
<path d="M72.6494 11.7719L77.3085 0H81.0011L77.8751 7.90064H83.8501L82.6003 11.0792C82.4335 11.4999 82.0337 11.7751 81.5866 11.7751H72.6494V11.7719Z" fill="#D13124"/>
<path d="M105.394 11.7499L110.007 0.578225C110.151 0.229405 110.496 0 110.876 0H112.504C113.175 0 113.798 0.351963 114.137 0.927046L116.829 5.468L119.089 0H122.91L118.399 11.1308C118.245 11.5079 117.878 11.7531 117.472 11.7531H115.761C115.186 11.7531 114.652 11.4639 114.342 10.9863L111.356 6.3919L109.163 11.7751L105.391 11.7531L105.394 11.7499Z" fill="#D13124"/>
<path d="M129.272 16.7815L133.59 4.71924H137.815L139.672 8.15501L143.852 4.71924H148.227L143.98 16.7815H139.591L141.909 9.98721L137.88 13.2845L136.04 9.77147L133.507 16.7815H129.272Z" fill="#D13124"/>
<path d="M157.578 1.27295C154.84 1.27295 154.342 3.13697 154.342 3.13697C154.342 3.13697 150.813 12.9254 150.813 13.048H154.988L156.167 10.2001H160.559L159.525 13.048H163.924L168.045 1.27295H157.575H157.578ZM161.687 7.19191H157.247L158.284 4.29372H162.724L161.687 7.19191Z" fill="#D13124"/>
<path d="M183.869 5.5816H173L168.618 17.3566H173.042L174.641 13.0043H176.79L179.023 17.3566H183.488L181.255 13.0043C183.571 13.0043 184.329 11.0861 184.329 11.0861C184.329 11.0861 184.71 9.87694 185.423 7.70869C186.14 5.54045 183.865 5.5816 183.865 5.5816H183.869ZM180.414 10.3771H175.632L176.266 8.54117H181.048L180.414 10.3771Z" fill="#D13124"/>
<path d="M189.572 10.1208H198.518L199.066 8.62565H192.27C192.27 8.62565 190.075 8.54364 191.046 6.00757L192.187 2.97628C192.187 2.97628 192.568 1.27295 195.183 1.27295H206.241L205.187 4.18123H196.24L195.651 5.59436H202.36C202.36 5.59436 204.472 5.80254 203.838 7.58788L202.614 11.1617C202.614 11.1617 202.024 13.048 199.534 13.048H188.435L189.575 10.1208H189.572Z" fill="#D13124"/>
</g>
<defs>
<filter id="filter0_ddi_2738_74" x="0.890739" y="0" width="206.46" height="19.575" filterUnits="userSpaceOnUse" color-interpolation-filters="sRGB">
<feFlood flood-opacity="0" result="BackgroundImageFix"/>
<feColorMatrix in="SourceAlpha" type="matrix" values="0 0 0 0 0 0 0 0 0 0 0 0 0 0 0 0 0 0 127 0" result="hardAlpha"/>
<feOffset dy="1.10926"/>
<feComposite in2="hardAlpha" operator="out"/>
<feColorMatrix type="matrix" values="0 0 0 0 0.415686 0 0 0 0 0.129412 0 0 0 0 0.0941176 0 0 0 1 0"/>
<feBlend mode="normal" in2="BackgroundImageFix" result="effect1_dropShadow_2738_74"/>
<feColorMatrix in="SourceAlpha" type="matrix" values="0 0 0 0 0 0 0 0 0 0 0 0 0 0 0 0 0 0 127 0" result="hardAlpha"/>
<feOffset dy="1.10926"/>
<feGaussianBlur stdDeviation="0.55463"/>
<feComposite in2="hardAlpha" operator="out"/>
<feColorMatrix type="matrix" values="0 0 0 0 0 0 0 0 0 0 0 0 0 0 0 0 0 0 0.5 0"/>
<feBlend mode="normal" in2="effect1_dropShadow_2738_74" result="effect2_dropShadow_2738_74"/>
<feBlend mode="normal" in="SourceGraphic" in2="effect2_dropShadow_2738_74" result="shape"/>
<feColorMatrix in="SourceAlpha" type="matrix" values="0 0 0 0 0 0 0 0 0 0 0 0 0 0 0 0 0 0 127 0" result="hardAlpha"/>
<feOffset dy="1.10926"/>
<feGaussianBlur stdDeviation="1.10926"/>
<feComposite in2="hardAlpha" operator="arithmetic" k2="-1" k3="1"/>
<feColorMatrix type="matrix" values="0 0 0 0 1 0 0 0 0 1 0 0 0 0 1 0 0 0 0.5 0"/>
<feBlend mode="normal" in2="shape" result="effect3_innerShadow_2738_74"/>
</filter>
</defs>
</svg>
