<svg width="512" height="512" viewBox="0 0 512 512" fill="none" xmlns="http://www.w3.org/2000/svg">
<g clip-path="url(#clip0_1272_57)">
<path d="M68.8257 361.807L49.7344 335.134L61.1892 321.797L74.5531 258.925L89.8261 199.863V142.706L91.7352 117.938L99.3718 95.0752L105.099 87.4543H120.372L326.558 100.791L381.923 91.2648L401.014 87.4543H412.469L420.106 95.0752L423.924 117.938L427.742 161.758L431.56 224.631L443.015 272.261L454.47 314.176L464.016 335.134L460.197 344.66L448.743 354.186L347.559 436.111L177.646 438.016L68.8257 361.807Z" fill="url(#paint0_radial_1272_57)"/>
<path d="M262.602 486.599C270.238 477.073 300.727 462.784 300.727 462.784C380.911 439.921 436.276 377.049 436.276 377.049L449.639 354.186C449.639 352.281 457.276 321.797 430.548 316.081C403.82 310.366 388.547 331.323 361.819 342.755C335.092 354.186 331.273 354.186 293.091 331.323C293.091 331.323 279.727 321.797 258.726 321.797H257.829C236.829 321.797 223.465 331.323 223.465 331.323C185.282 354.186 181.464 354.186 154.736 342.755C128.008 331.323 112.735 310.366 86.0073 316.081C59.2795 321.797 66.916 352.281 66.916 354.186L80.28 377.049C80.28 377.049 135.645 439.921 215.828 462.784C215.828 462.784 244.465 474.215 252.102 483.741" fill="url(#paint1_radial_1272_57)"/>
<path d="M169.055 143.658C169.055 143.658 138.509 160.806 125.145 132.227L123.236 111.27C123.236 111.27 136.6 134.132 165.237 137.943C165.237 137.943 128.964 116.985 132.782 80.786L138.509 57.9233L142.328 75.0704L149.964 84.5965C149.964 84.5965 155.692 59.8286 161.419 56.0181C161.419 56.0181 172.874 69.3547 184.329 73.1651C184.329 73.1651 178.601 50.3024 193.874 29.345C193.874 29.345 199.602 61.7338 247.33 57.9233H262.603C262.603 57.9233 243.512 52.2077 237.784 44.5868C237.784 44.5868 262.603 52.2077 308.422 50.3024C308.422 50.3024 354.241 52.2077 359.969 96.0279C359.969 96.0279 367.605 92.2174 363.787 78.8808L342.786 50.3024C342.786 50.3024 384.787 57.9233 379.06 97.9331L352.332 143.658L348.514 130.322L340.877 134.132L335.15 122.701L331.332 134.132L316.059 118.891C316.059 118.891 325.604 132.227 289.331 124.606C253.057 116.985 293.149 130.322 293.149 130.322C293.149 130.322 262.603 137.943 228.239 130.322L218.693 124.606C218.693 124.606 222.511 130.322 233.966 137.943C233.966 137.943 214.875 139.848 205.329 132.227C205.329 132.227 191.965 122.701 203.42 139.848L191.965 137.943L193.874 141.753L170.965 143.658H169.055Z" fill="url(#paint2_linear_1272_57)"/>
<path d="M88.8719 139.848C88.8719 139.848 86.9627 164.616 98.4175 214.152C98.4175 214.152 85.0536 250.351 83.1445 297.982C83.1445 297.982 77.4171 265.593 75.508 233.204V219.867C75.508 219.867 69.7806 198.91 83.1445 183.668L88.8719 170.331C88.8719 170.331 65.9623 177.952 43.0527 158.9L67.8714 160.805L43.0527 151.279C43.0527 151.279 64.0532 153.184 75.508 147.469L88.8719 139.848Z" fill="url(#paint3_linear_1272_57)"/>
<path d="M371.422 156.995C371.422 156.995 411.514 151.279 424.878 158.9L426.787 155.09L438.241 156.995L432.514 160.805L449.696 170.331V176.047L443.969 183.668L436.332 197.005L451.605 195.099L443.969 204.626L453.515 208.436L443.969 214.152L453.515 223.678L430.605 216.057L443.969 233.204L459.242 259.877L447.787 256.067L449.696 271.308V286.55L438.241 256.067C438.241 256.067 430.605 294.171 424.878 305.602L426.787 267.498L428.696 238.92C428.696 238.92 411.514 242.73 403.877 229.393L419.15 223.678C419.15 223.678 400.059 216.057 390.513 204.626H400.059L382.877 193.194C382.877 193.194 379.058 187.479 403.877 189.384C403.877 189.384 379.058 185.573 382.877 168.426C382.877 168.426 373.331 164.616 371.422 156.995Z" fill="url(#paint4_linear_1272_57)"/>
<path d="M137.898 111.574C137.898 111.574 117.508 96.0277 109.871 116.985C102.235 137.943 111.781 185.573 113.69 189.384C113.155 189.746 127.703 166.616 157.218 150.098C160.387 148.326 135.091 146.84 138.508 145.564L125.145 130.322L123.235 116.985C123.235 116.985 151.872 139.848 159.509 134.132L137.898 111.574Z" fill="white"/>
<path d="M373.332 113.175C373.332 113.175 397.768 92.3506 406.684 116.985C411.514 130.322 409.605 153.184 409.605 153.184C367.604 156.995 375.241 160.805 375.241 160.805C366.268 152.613 362.144 150.327 349.41 145.564L361.877 128.417L373.332 113.175Z" fill="white"/>
<path d="M168.749 141.887C158.955 145.907 146.66 147.431 137.229 141.62C126.691 135.123 125.431 121.634 124.591 110.488L119.78 111.784C129.745 131.255 151.395 139.41 172.014 141.62C175.011 141.944 175.335 137.409 172.701 136.571C167.775 134.99 163.193 132.056 158.974 129.16C153.419 125.349 148.149 120.91 143.854 115.728C136.427 106.754 133.545 94.3893 134.251 82.9389C134.805 73.9271 137.821 65.3155 142.365 57.5613L137.554 56.2657C137.267 66.8016 140.876 76.8993 147.519 85.0537C149.619 87.6257 153.247 83.9677 151.166 81.4147C145.381 74.3272 142.479 65.3536 142.708 56.2657C142.785 53.6936 139.177 52.7982 137.897 54.9701C129.822 68.7449 126.767 85.0156 130.776 100.581C132.227 106.202 134.556 111.746 137.955 116.49C142.193 122.396 147.691 127.254 153.495 131.56C158.898 135.561 164.873 139.467 171.326 141.544L172.014 136.495C153.17 134.456 133.335 126.988 124.228 109.193C123.083 106.964 119.226 107.954 119.417 110.488C120.391 123.444 122.204 137.981 134.06 145.716C144.618 152.613 158.898 151.451 170.104 146.84C173.121 145.602 171.804 140.61 168.73 141.887H168.749Z" fill="black"/>
<path d="M196.03 139.867C184.347 132.284 173.445 122.929 164.835 111.974C156.492 101.362 151.452 88.9402 154.221 75.3369C155.748 67.8303 159.242 60.8572 164.186 55.0082L159.872 53.865C161.647 58.609 164.148 63.0673 167.909 66.5538C171.67 70.0404 176.615 72.4219 181.674 73.927C184.862 74.8797 186.218 69.907 183.048 68.9735C174.362 66.4014 168.043 61.0668 164.835 52.5123C164.224 50.8738 161.895 49.7688 160.521 51.3692C151.09 62.5147 146.317 77.1278 149.028 91.6266C151.739 106.125 162.697 118.795 173.369 128.702C179.574 134.456 186.294 139.714 193.396 144.325C196.183 146.135 198.78 141.677 195.992 139.886L196.03 139.867Z" fill="black"/>
<path d="M172.339 70.0214C170.621 83.3008 175.012 96.9993 181.522 108.45C187.479 118.928 195.993 127.426 207.028 132.437C210.025 133.789 212.641 129.369 209.625 127.997C199.315 123.311 191.526 115.632 185.951 105.859C179.842 95.1132 175.871 82.4625 177.475 70.0214C177.895 66.7444 172.74 66.7825 172.32 70.0214H172.339Z" fill="black"/>
<path d="M227.684 125.063C214.224 119.9 204.717 108.297 197.5 96.2945C193.567 89.7596 189.635 82.8055 187.229 75.5466C184.633 67.7162 184.766 59.4665 186.675 51.5027C188.89 42.3195 193.09 33.8032 197.767 25.6488L192.956 24.3532C192.785 35.1559 197.901 45.7108 206.473 52.3219C216.248 59.8666 228.944 60.4763 240.799 60.5525C253.858 60.6287 267.069 60.4382 279.994 62.7245C286.466 63.8867 292.899 65.6204 298.894 68.3258C304.889 71.0313 310.196 74.3463 315.484 77.9282C326.825 85.5872 339.94 95.38 340.819 110.279C341.01 113.575 346.164 113.594 345.973 110.279C345.21 97.5139 336.848 87.5115 327.13 79.9477C317.413 72.384 306.168 65.0298 294.14 60.9717C282.113 56.9135 268.749 55.8276 255.881 55.5227C243.014 55.2179 229.955 56.7802 217.985 52.703C206.015 48.6258 197.92 36.9468 198.111 24.3342C198.149 21.7812 194.579 20.8476 193.3 23.0386C184.671 38.0328 177.092 55.637 181.196 73.2223C183.105 81.3957 187.363 89.0737 191.506 96.3136C195.4 103.115 199.848 109.688 205.194 115.442C211.093 121.806 218.138 126.892 226.271 129.998C229.364 131.179 230.719 126.207 227.645 125.044L227.684 125.063Z" fill="black"/>
<path d="M225.775 77.2041C239.655 100.448 263.729 117.119 290.266 122.51C297.864 124.054 305.634 124.682 313.385 124.339C316.688 124.187 316.707 119.043 313.385 119.195C287.574 120.376 261.858 110.05 243.645 91.8362C238.471 86.673 233.984 80.9002 230.242 74.632C228.543 71.7932 224.095 74.3843 225.794 77.2231L225.775 77.2041Z" fill="black"/>
<path d="M289.253 111.403C305.309 114.223 320.104 122.949 330.032 135.904C331.387 137.676 335.072 137.447 334.843 134.609C334.499 130.57 335.11 126.664 336.886 123.006H332.437C334.614 127.197 336.79 131.408 338.966 135.599C339.768 137.143 341.849 137.162 343.014 136.114C345.209 134.151 347.424 132.17 349.619 130.208L345.305 129.064C346.603 134.285 347.691 139.562 348.55 144.878C348.779 146.326 350.479 146.897 351.719 146.669C353.648 146.307 354.812 144.668 354.793 142.763C354.755 139.448 349.6 139.448 349.639 142.763L350.364 141.715L353.533 143.506C352.674 138.19 351.586 132.913 350.288 127.693C349.791 125.73 347.367 125.311 345.973 126.55C343.777 128.512 341.563 130.493 339.367 132.456L343.415 132.97C341.238 128.779 339.062 124.568 336.886 120.377C336.026 118.738 333.258 118.662 332.437 120.377C330.28 124.854 329.287 129.617 329.707 134.59L334.518 133.294C323.789 119.272 308.134 109.498 290.665 106.43C287.42 105.859 286.026 110.812 289.291 111.384L289.253 111.403Z" fill="black"/>
<path d="M331.54 50.1498C343.434 55.1415 353.056 64.7629 358.764 76.2514C365.255 89.3213 365.465 103.782 361.418 117.633C358.878 126.34 354.984 134.532 350.707 142.515C349.505 144.744 351.948 147.354 354.239 146.04C354.812 145.716 355.385 145.373 355.958 145.049C358.84 143.392 356.244 138.952 353.361 140.61C352.788 140.934 352.216 141.277 351.643 141.601L355.175 145.125C363.136 130.226 370.238 113.765 369.341 96.523C368.615 82.4434 362.429 68.9163 352.731 58.7615C347.137 52.8934 340.398 48.3589 332.933 45.2153C329.879 43.9388 328.542 48.9114 331.559 50.1689L331.54 50.1498Z" fill="black"/>
<path d="M269.971 56.3992C259.47 54.7226 249.467 51.0265 240.284 45.7109C236.313 43.4056 232.342 40.8716 229.115 38.0138L225.984 42.0529C237.668 47.0445 249.715 50.1501 262.372 51.2741C275.03 52.3982 286.466 51.6552 298.512 51.9791C311.361 52.3411 324.362 54.5511 335.416 61.4671C345.324 67.6591 352.178 78.4617 355.423 89.512C359.929 104.925 355.061 120.053 348.589 134.132C347.214 137.124 351.662 139.734 353.037 136.723C359.089 123.577 364.167 109.403 361.876 94.7323C360.024 82.9009 354.087 71.279 345.496 62.9151C326.061 44.0152 297.615 47.3494 272.854 46.6825C257.523 46.2634 242.766 43.6342 228.6 37.5946C226.156 36.5468 223.082 39.5189 225.469 41.6337C237.229 52.0172 253.228 58.895 268.615 61.3528C271.861 61.8672 273.254 56.9136 269.99 56.3992H269.971Z" fill="black"/>
<path d="M332.095 49.2164C346.337 53.3126 362.011 58.1519 371.213 70.612C380.739 83.5104 377.341 99.4952 369.972 112.546C365.581 120.319 360.102 127.388 355.119 134.761C353.267 137.524 357.715 140.096 359.567 137.352C369.017 123.349 380.434 109.764 382.171 92.3125C383.756 76.3087 374.344 62.8578 360.98 54.913C352.465 49.8641 342.9 46.9491 333.45 44.2247C330.262 43.3102 328.887 48.2637 332.075 49.1782L332.095 49.2164Z" fill="black"/>
<path d="M373.064 160.424C379.078 159.3 385.034 157.776 391.105 156.995C397.921 156.119 404.908 157.471 411.609 158.691C416.726 159.624 421.766 160.844 426.749 162.292C433.679 164.292 440.399 165.073 447.616 165.206L446.928 160.158C433.545 164.787 419.475 166.445 405.386 165.073C402.465 164.787 401.93 169.417 404.698 170.122C418.387 173.589 432.686 173.609 446.394 170.179L444.408 165.473C431.522 171.551 418.005 177.552 403.381 175.476C391.43 173.78 380.548 167.302 374.572 156.652C372.949 153.756 368.501 156.347 370.124 159.243C376.71 170.979 388.795 178.467 402.006 180.429C418.139 182.811 432.724 176.657 447.005 169.912C449.716 168.636 447.768 164.521 445.019 165.206C432.209 168.407 418.864 168.388 406.054 165.149L405.366 170.198C419.857 171.608 434.538 169.855 448.284 165.111C450.976 164.178 450.613 160.12 447.596 160.062C442.728 159.967 437.803 159.91 433.068 158.729C431.14 158.252 429.25 157.643 427.341 157.109C421.938 155.566 416.459 154.309 410.922 153.375C403.896 152.194 396.89 151.051 389.807 152.022C383.698 152.861 377.722 154.347 371.689 155.471C368.425 156.08 369.818 161.034 373.064 160.424Z" fill="black"/>
<path d="M376.901 170.293C380.185 175.552 383.64 180.887 388.661 184.64C394.236 188.812 401.452 189.746 408.211 190.375C421.441 191.632 436.905 189.822 447.825 181.611C453.075 177.667 455.844 169.741 449.582 165.264C446.89 163.339 444.312 167.798 446.985 169.703C449.811 171.722 447.062 175.628 445.248 177.133C442.575 179.343 439.12 180.906 435.893 182.106C429.364 184.545 422.415 185.592 415.446 185.573C411.915 185.573 408.383 185.326 404.908 184.849C401.433 184.373 397.501 183.782 394.236 182.106C388.375 179.077 384.709 173.113 381.349 167.683C379.593 164.883 375.145 167.455 376.901 170.274V170.293Z" fill="black"/>
<path d="M434.596 198.262C417.528 195.499 400.423 193.137 383.259 191.137C380.72 190.851 379.747 194.833 381.961 195.938C405.062 207.369 428.659 217.772 452.695 227.088C454.909 227.945 456.589 225.107 455.596 223.316C453.21 218.934 450.117 215.009 446.452 211.618L445.306 215.923C449.067 214.609 452.828 213.294 456.589 211.961C458.823 211.179 459.243 207.598 456.589 207.007C451.95 205.959 447.292 204.911 442.652 203.863L443.798 208.169C448.055 204.435 452.313 200.72 456.551 196.986C458.67 195.137 456.341 192.299 454.05 192.68C447.922 193.728 441.774 194.49 435.589 194.985L437.402 199.367C442.137 194.299 445.497 188.183 447.139 181.439C447.922 178.219 442.958 176.847 442.175 180.067C440.724 185.973 437.918 191.27 433.756 195.728C432.343 197.233 433.241 200.301 435.57 200.11C442.213 199.577 448.838 198.757 455.406 197.614L452.905 193.308C448.647 197.043 444.39 200.758 440.152 204.492C438.72 205.75 439.464 208.379 441.297 208.798C445.936 209.846 450.595 210.894 455.234 211.942V206.988C451.473 208.303 447.712 209.617 443.951 210.951C442.213 211.561 441.297 213.847 442.805 215.257C446.184 218.362 448.934 221.887 451.148 225.907L454.05 222.135C430.434 212.97 407.257 202.758 384.558 191.518L383.259 196.319C399.964 198.262 416.631 200.567 433.24 203.254C436.486 203.787 437.88 198.815 434.615 198.3L434.596 198.262Z" fill="black"/>
<path d="M383.222 93.3795C391.183 91.3599 399.755 89.6071 408.002 89.8548C411.763 89.9691 414.646 91.1694 416.44 94.5988C418.235 98.0282 419.247 101.991 420.106 105.706C421.996 113.88 422.683 122.301 423.256 130.646C423.829 138.991 424.077 148.155 423.982 156.9C423.943 160.215 429.098 160.215 429.136 156.9C429.251 147.202 428.945 137.504 428.201 127.826C427.456 118.147 426.597 109.04 423.943 100.029C422.817 96.2182 421.519 91.9886 418.827 88.9593C416.307 86.1396 412.756 85.0155 409.09 84.7488C404.795 84.4249 400.366 85.0536 396.127 85.6252C391.316 86.273 386.563 87.2065 381.866 88.3878C378.659 89.207 380.014 94.1606 383.241 93.3413L383.222 93.3795Z" fill="black"/>
<path d="M428.41 157.319C432.4 157.166 436.39 157.033 440.38 156.881L439.082 152.079C437.02 153.566 434.863 154.899 432.629 156.119C431.445 156.766 430.968 158.5 431.712 159.643C432.495 160.844 433.965 161.244 435.244 160.558C437.478 159.357 439.635 158.005 441.697 156.519C442.595 155.871 443.263 154.766 442.881 153.623C442.537 152.575 441.564 151.698 440.399 151.737C436.409 151.889 432.419 152.022 428.429 152.175C427.092 152.232 425.794 153.318 425.851 154.747C425.909 156.1 426.978 157.376 428.429 157.319H428.41Z" fill="black"/>
<path d="M426.329 112.298C429.021 111.231 431.732 110.164 434.424 109.097L431.522 105.325C430.625 107.326 429.498 109.231 428.2 111.003C428.124 111.098 428.066 111.193 427.99 111.289C427.704 111.67 428.219 111.022 428.009 111.269C427.837 111.479 427.665 111.689 427.513 111.898C427.169 112.317 426.825 112.717 426.444 113.098C425.68 113.937 424.859 114.718 424 115.442C422.988 116.318 423.026 118.185 424 119.081C425.088 120.072 426.558 120.033 427.646 119.081C431.178 116.033 434.061 112.165 435.97 107.916C436.409 106.945 436.447 105.954 435.76 105.058C435.187 104.315 434.004 103.763 433.049 104.144C430.357 105.211 427.646 106.278 424.954 107.345C424.305 107.592 423.771 107.897 423.408 108.526C423.083 109.078 422.95 109.898 423.141 110.507C423.542 111.708 424.973 112.832 426.31 112.298H426.329Z" fill="black"/>
<path d="M426.786 133.77L433.201 131.465C433.85 131.236 434.385 130.893 434.748 130.284C435.072 129.731 435.206 128.912 435.015 128.302C434.824 127.693 434.423 127.083 433.831 126.759C433.239 126.435 432.495 126.264 431.846 126.492L425.431 128.798C424.782 129.026 424.247 129.369 423.885 129.979C423.56 130.531 423.426 131.351 423.617 131.96C423.808 132.57 424.209 133.18 424.801 133.504C425.393 133.828 426.137 133.999 426.786 133.77Z" fill="black"/>
<path d="M130.604 86.8826C125.01 85.0917 119.111 84.4059 113.288 83.9105C109.451 83.5866 105.613 83.7771 102.272 85.8729C94.7121 90.5978 92.9557 101.286 91.2948 109.25C86.5602 131.922 85.0901 155.014 88.2593 178.01C89.9775 190.432 92.9367 202.625 96.5258 214.609C97.4804 217.772 102.444 216.419 101.49 213.237C95.6285 193.671 91.6575 173.647 91.6194 153.146C91.6003 142.153 92.593 131.179 94.4067 120.357C95.3613 114.68 96.4304 108.964 97.8813 103.401C98.855 99.6858 100 95.6848 102.406 92.5983C104.601 89.7595 107.713 88.7498 111.226 88.9022C117.259 89.1689 123.483 89.9882 129.248 91.8362C132.417 92.846 133.773 87.8924 130.623 86.8826H130.604Z" fill="black"/>
<path d="M96.603 213.123C92.4792 218.477 90.6274 225.05 89.3101 231.566C87.7446 239.32 86.5418 247.169 85.5109 255.019C83.3918 271.118 82.1699 287.293 80.9481 303.488L86.0073 302.802C81.1963 282.587 79.3635 261.821 80.4708 241.073C80.6426 237.758 75.488 237.777 75.3161 241.073C74.1898 262.259 76.1371 283.521 81.0435 304.155C81.7499 307.108 85.8927 306.231 86.1027 303.469C87.2673 287.903 88.451 272.337 90.4365 256.867C91.4292 249.113 92.632 241.358 94.1402 233.699C95.4002 227.317 97.023 220.972 101.07 215.733C103.094 213.104 98.6075 210.551 96.622 213.142L96.603 213.123Z" fill="black"/>
<path d="M81.655 198.281C79.8986 207.617 83.8696 217.276 91.7352 222.649C92.8807 223.43 94.5989 222.859 95.2671 221.734C96.0116 220.458 95.4962 219.01 94.3507 218.21C88.4706 214.19 85.3587 206.455 86.6378 199.653C86.886 198.281 86.256 196.871 84.8432 196.49C83.5832 196.147 81.9413 196.909 81.6741 198.281H81.655Z" fill="black"/>
<path d="M86.4085 173.266C82.4184 179.038 77.7219 184.716 74.4573 190.927C71.6509 196.243 70.9827 202.473 71.7464 208.379C73.1591 219.524 79.7647 229.698 89.5013 235.395C92.365 237.072 94.9614 232.632 92.0977 230.956C83.5639 225.964 77.6838 216.838 76.7483 206.988C76.2328 201.634 77.0919 196.338 79.9556 191.727C83.3348 186.278 87.2294 181.115 90.8758 175.857C92.7659 173.132 88.2985 170.56 86.4276 173.266H86.4085Z" fill="black"/>
<path d="M74.2097 218.667C74.7633 228.193 74.7251 237.738 74.0187 247.265C73.5987 252.942 72.9496 257.553 70.9832 263.021C69.0168 268.489 66.4968 273.9 63.4613 278.929C60.7885 283.331 57.5048 288.151 52.751 290.513C49.7728 291.98 52.3883 296.419 55.3475 294.952C63.5376 290.894 68.6541 281.082 72.3387 273.176C74.286 268.984 76.0424 264.659 77.3215 260.22C78.7152 255.419 78.9825 250.389 79.307 245.417C79.8989 236.519 79.8989 227.584 79.3643 218.667C79.1734 215.371 74.0187 215.352 74.2097 218.667Z" fill="black"/>
<path d="M406.646 204.264C400.689 202.759 394.656 201.673 388.547 200.949C386.333 200.682 385.149 203.94 386.734 205.331C405.042 221.658 427.188 233.337 451.052 239.11C454.279 239.891 455.653 234.938 452.427 234.157C429.441 228.593 408.04 217.429 390.38 201.692L388.566 206.074C394.198 206.74 399.792 207.807 405.29 209.198C408.498 210.017 409.872 205.045 406.665 204.245L406.646 204.264Z" fill="black"/>
<path d="M435.951 252.637C439.903 269.918 444.389 287.084 449.41 304.097C453.305 317.262 457.524 331.78 469.628 339.801L470.926 335C465.791 334.752 460.903 332.866 456.97 329.57C454.45 327.455 450.785 331.075 453.324 333.209C458.345 337.439 464.34 339.839 470.926 340.144C473.637 340.278 474.229 336.677 472.224 335.343C460.674 327.703 457.219 312.499 453.591 300.058C448.876 283.921 444.676 267.65 440.915 251.265C440.17 248.046 435.206 249.398 435.951 252.637Z" fill="black"/>
<path d="M426.539 228.765C424.706 253.399 425.088 278.11 423.274 302.745C423.045 305.755 427.474 306.079 428.333 303.431C431.063 295.009 434.156 286.665 436.504 278.129C438.853 269.594 440.132 260.792 441.029 251.951C441.354 248.655 436.199 248.674 435.874 251.951C435.015 260.525 433.717 269.003 431.388 277.31C429.059 285.617 426.042 293.809 423.37 302.059L428.429 302.745C430.262 278.11 429.88 253.399 431.693 228.765C431.942 225.469 426.787 225.469 426.539 228.765Z" fill="black"/>
<path d="M440.972 236.157C446.967 245.264 452.98 254.371 458.975 263.478L463.022 260.354C458.67 256.772 453.171 255.228 448.131 252.885C446.069 251.932 443.874 253.495 444.351 255.781C446.737 267.289 449.181 279.177 446.107 290.78C445.267 293.981 450.231 295.353 451.071 292.152C454.374 279.615 451.873 266.831 449.315 254.409L445.535 257.305C450.078 259.401 455.462 260.735 459.376 263.973C461.476 265.707 465.161 263.478 463.423 260.849C457.429 251.742 451.415 242.635 445.42 233.528C443.607 230.765 439.139 233.356 440.972 236.119V236.157Z" fill="black"/>
<path d="M87.7248 137.981C74.1891 148.079 56.3387 151.032 40.2829 145.697C37.6483 144.821 36.2355 148.193 37.7819 150.003C49.1985 163.339 68.0226 162.063 83.7347 159.929L82.3601 154.975C76.1746 156.843 69.9126 158.595 63.4407 158.957C55.7278 159.377 48.1867 157.967 40.7602 155.966C38.3165 155.318 36.3692 158.462 38.2592 160.272C51.2413 172.656 70.5235 177.419 87.7821 172.351C90.9512 171.418 89.6148 166.464 86.4075 167.398C70.9054 171.932 53.5895 167.779 41.9057 156.633L39.4047 160.939C47.2321 163.035 55.3268 164.559 63.4597 164.102C70.409 163.72 77.1291 161.949 83.7538 159.929C87.0184 158.938 85.5675 154.537 82.3792 154.975C68.4426 156.881 51.5659 158.214 41.4475 146.364L38.9465 150.67C56.1478 156.385 75.8309 153.261 90.3594 142.42C92.994 140.458 90.4167 135.999 87.763 137.981H87.7248Z" fill="black"/>
<path d="M75.3548 263.116C69.1692 275.862 65.5037 289.122 63.1554 303.069C62.0481 309.699 60.7117 316.348 57.3708 322.273C54.3543 327.627 50.1161 332.161 45.0187 335.572C43.0523 336.886 43.5868 340.544 46.3169 340.373C52.827 339.954 59.0317 337.801 64.2627 333.857C66.8782 331.895 64.32 327.417 61.6663 329.418C57.1608 332.809 51.9679 334.867 46.336 335.229L47.6342 340.03C58.9744 332.447 65.1027 321.073 67.5464 307.889C68.8828 300.687 69.9328 293.504 71.9183 286.436C73.9038 279.368 76.5766 272.395 79.8221 265.726C81.254 262.754 76.8248 260.144 75.3739 263.135L75.3548 263.116Z" fill="black"/>
<path d="M65.0069 343.993C63.9378 344.05 62.8495 344.05 61.7804 343.936C61.6468 343.936 61.5132 343.897 61.3795 343.897C61.055 343.859 61.8759 343.974 61.3795 343.897C61.1122 343.859 60.8641 343.802 60.5968 343.764C60.0431 343.65 59.4895 343.516 58.9549 343.364C58.4395 343.212 57.9622 343.021 57.4658 342.85C57.1222 342.735 57.8667 343.04 57.5422 342.888C57.4276 342.83 57.294 342.773 57.1794 342.716C56.9122 342.583 56.6449 342.468 56.3967 342.316C55.9385 342.068 55.4994 341.802 55.0794 341.497C55.0221 341.459 54.5639 341.135 54.8694 341.363C55.1367 341.573 54.8121 341.306 54.7548 341.268C54.5257 341.078 54.3157 340.887 54.1057 340.697L52.2921 345.079C56.5685 344.717 60.9022 343.745 64.415 341.173C65.5032 340.373 66.1523 338.906 65.3314 337.648C64.6441 336.581 62.9641 335.876 61.7995 336.734C61.055 337.286 60.2531 337.782 59.4322 338.182C59.2413 338.277 59.0504 338.353 58.8595 338.448C58.5922 338.563 58.6113 338.563 58.8976 338.448C58.8022 338.487 58.7067 338.525 58.6113 338.563C58.1913 338.734 57.7522 338.887 57.3131 339.02C56.4349 339.287 55.5376 339.496 54.6212 339.668C54.4112 339.706 54.2012 339.744 53.9912 339.782C53.8957 339.782 53.1893 339.935 53.8194 339.801C53.323 339.896 52.8075 339.916 52.3111 339.954C51.2611 340.049 50.3829 340.525 49.9629 341.535C49.5811 342.449 49.7338 343.631 50.4975 344.336C54.3348 347.956 59.8522 349.461 65.0641 349.156C66.4005 349.08 67.6987 348.032 67.6415 346.584C67.5842 345.25 66.496 343.916 65.0641 344.012L65.0069 343.993Z" fill="black"/>
<path d="M453.859 342.564C457.371 343.116 460.922 343.574 464.454 343.878L463.156 339.077C461.361 340.011 459.529 340.887 457.677 341.707C457.448 341.802 457.219 341.897 456.99 342.011C456.856 342.069 456.722 342.126 456.589 342.183C456.837 342.069 456.894 342.049 456.722 342.126C456.264 342.316 455.806 342.507 455.348 342.697C454.393 343.078 453.419 343.44 452.465 343.783C451.205 344.24 450.212 345.555 450.67 346.946C451.071 348.184 452.484 349.232 453.84 348.737C457.925 347.27 461.915 345.536 465.772 343.516C466.745 343.021 467.299 341.649 466.955 340.621C466.573 339.477 465.657 338.83 464.473 338.734C462.851 338.601 461.228 338.43 459.605 338.22C459.242 338.182 458.88 338.125 458.498 338.087C457.753 337.991 459.032 338.163 458.307 338.068C458.078 338.029 457.868 338.01 457.639 337.972C456.837 337.858 456.035 337.744 455.214 337.61C454.508 337.496 453.878 337.496 453.229 337.877C452.694 338.182 452.179 338.792 452.045 339.42C451.759 340.659 452.427 342.354 453.84 342.583L453.859 342.564Z" fill="black"/>
<path d="M228.276 405.989C237.096 410.752 247.749 411.8 257.6 411.99C268.731 412.2 279.345 410.39 289.998 407.284C293.168 406.351 291.831 401.397 288.624 402.331C278.62 405.246 268.75 406.999 258.288 406.865C249.143 406.751 239.044 405.97 230.854 401.55C227.933 399.968 225.336 404.407 228.257 405.989H228.276Z" fill="black"/>
<path d="M60.8839 353.576C72.5869 373.524 89.5209 390.804 106.951 405.779C134.443 429.385 165.81 447.351 199.678 460.154C208.975 463.66 218.406 466.88 227.398 471.167C236.39 475.453 244.084 479.873 250.289 487.475C252.389 490.047 256.016 486.389 253.935 483.836C243.34 470.862 226.711 464.803 211.457 459.087C192.996 452.172 174.897 444.894 157.696 435.158C130.796 419.954 106.035 400.578 85.3781 377.582C77.9707 369.332 70.9451 360.568 65.3131 350.985C63.6331 348.127 59.1848 350.718 60.8648 353.576H60.8839Z" fill="black"/>
<path d="M450.346 350.985C438.796 370.647 422.053 387.603 404.833 402.369C392.347 413.076 378.945 422.698 364.836 431.157C348.093 441.216 330.453 449.257 312.163 456.115C303.152 459.488 294.027 462.669 285.359 466.861C276.692 471.052 269.628 476.463 263.652 483.836C261.591 486.389 265.199 490.047 267.299 487.475C272.663 480.864 278.945 475.815 286.543 472.005C294.141 468.194 302.293 465.26 310.312 462.288C328.62 455.468 346.432 447.828 363.366 438.016C389.846 422.679 414.321 403.283 434.672 380.421C442.099 372.076 449.163 363.236 454.814 353.576C456.494 350.718 452.045 348.127 450.365 350.985H450.346Z" fill="black"/>
<path d="M211.743 409.875C219.934 408.789 228.009 406.999 236.009 404.941C243.588 402.998 251.358 400.959 258.46 397.587C261.247 396.253 261.973 392.271 260.522 389.775C258.842 386.917 255.482 386.403 252.694 387.718C252.389 387.87 252.064 388.003 251.759 388.156C250.823 388.613 252.599 387.87 251.892 388.099C251.148 388.346 250.422 388.67 249.697 388.937C248.151 389.509 246.585 390.023 245.001 390.518C241.03 391.776 237.02 392.881 232.992 393.91C228.964 394.938 224.916 395.891 220.85 396.748C219.036 397.129 217.223 397.491 215.409 397.815C214.645 397.949 213.863 398.082 213.099 398.215C212.583 398.292 210.025 398.654 211.763 398.425C208.689 398.825 206.035 400.768 206.035 404.141C206.035 406.922 208.67 410.257 211.763 409.856L211.743 409.875Z" fill="black"/>
<path d="M308.422 398.444C307.047 398.273 309.777 398.673 308.326 398.444C307.964 398.387 307.601 398.33 307.238 398.273C306.36 398.139 305.501 397.987 304.623 397.834C302.847 397.53 301.072 397.187 299.296 396.825C295.02 395.948 290.743 394.996 286.505 393.929C282.267 392.862 278.391 391.833 274.401 390.614C272.683 390.099 270.984 389.547 269.304 388.956C268.617 388.708 267.929 388.442 267.223 388.194C266.936 388.08 265.657 387.489 267.127 388.175C266.803 388.023 266.478 387.889 266.154 387.737C263.347 386.441 259.987 386.937 258.326 389.794C256.875 392.252 257.563 396.31 260.388 397.606C267.719 400.978 275.661 403.017 283.47 404.96C291.698 406.999 300.003 408.809 308.422 409.895C311.496 410.295 314.149 406.98 314.149 404.179C314.149 400.769 311.496 398.863 308.422 398.463V398.444Z" fill="black"/>
<path d="M263.156 393.243L281.026 370.38C281.026 370.38 288.968 355.138 277.055 349.423C277.055 349.423 275.069 345.612 259.185 345.612H257.811C241.927 345.612 239.941 349.423 239.941 349.423C228.028 355.138 235.97 370.38 235.97 370.38L253.84 393.243" fill="black"/>
<path d="M254.793 354.148C254.697 353.767 254.525 353.386 254.354 353.024C254.125 352.49 253.762 352.052 253.38 351.614C253.265 351.48 253.132 351.347 252.979 351.214C252.674 350.947 252.33 350.68 251.967 350.471C251.185 350.013 250.459 349.861 249.581 349.747C249.161 349.689 248.741 349.747 248.34 349.804C248.283 349.804 248.244 349.766 248.187 349.747C247.481 349.594 246.583 349.594 245.973 350.032C245.667 350.261 245.323 350.49 245.056 350.756C244.77 351.023 244.541 351.347 244.312 351.671C243.987 352.128 243.777 352.662 243.567 353.176C243.376 353.69 243.319 354.281 243.262 354.834C243.204 355.405 243.3 355.958 243.376 356.51C243.472 357.063 243.701 357.577 243.93 358.092C244.159 358.587 244.522 359.044 244.903 359.444C245.266 359.825 245.705 360.168 246.183 360.416C246.66 360.664 247.175 360.892 247.71 360.968C248.798 361.159 249.924 361.178 250.975 360.797C251.471 360.606 252.005 360.397 252.445 360.092C253.017 359.673 253.418 359.33 253.838 358.777C254.583 357.825 255.06 356.567 254.945 355.348C254.907 354.948 254.869 354.529 254.774 354.148H254.793Z" fill="white"/>
<path d="M399.829 228.803C406.053 237.434 415.923 242.825 426.576 243.34C429.898 243.492 429.879 238.348 426.576 238.196C417.871 237.796 409.394 233.28 404.278 226.212C403.457 225.088 402.044 224.535 400.746 225.297C399.638 225.945 399.008 227.679 399.829 228.822V228.803Z" fill="black"/>
<path d="M177.645 321.797C177.645 321.797 146.145 320.844 146.145 303.697C146.145 286.55 169.054 286.55 185.282 289.408C198.569 291.751 210.1 297.029 210.1 304.65C210.1 316.081 200.555 321.797 177.645 321.797Z" fill="black"/>
<path d="M339.464 321.797C339.464 321.797 371.442 320.844 371.442 303.697C371.442 286.55 348.188 286.55 331.713 289.408C318.215 291.751 306.531 297.029 306.531 304.65C306.531 316.081 316.211 321.797 339.464 321.797Z" fill="black"/>
<path d="M167.908 294.457C167.813 294.076 167.641 293.752 167.393 293.485C167.183 293.18 166.915 292.933 166.591 292.742C166.362 292.647 166.133 292.552 165.904 292.456C165.789 292.418 165.674 292.418 165.56 292.418C165.216 292.247 164.854 292.152 164.472 292.171C164.071 292.171 163.708 292.247 163.364 292.418C163.288 292.437 163.212 292.495 163.116 292.533C162.906 292.609 162.696 292.704 162.486 292.799C161.99 293.085 161.493 293.58 161.207 294.076C160.902 294.609 160.711 295.238 160.73 295.848C160.73 296.153 160.768 296.476 160.863 296.762C160.94 296.991 161.073 297.372 161.245 297.6C161.36 297.772 161.589 298.115 161.799 298.286C161.971 298.439 162.276 298.706 162.524 298.82C162.677 298.896 163.097 299.106 163.364 299.163C163.651 299.22 163.918 299.258 164.204 299.277C164.243 299.277 164.281 299.277 164.319 299.277C164.357 299.277 164.376 299.277 164.414 299.277C164.644 299.258 164.968 299.22 165.197 299.163C165.197 299.163 165.235 299.163 165.254 299.163C165.56 299.087 165.846 298.953 166.114 298.82C166.133 298.82 166.171 298.782 166.19 298.763C166.304 298.686 166.419 298.591 166.514 298.515C166.61 298.439 166.744 298.344 166.839 298.267C166.858 298.248 166.896 298.229 166.915 298.191C167.106 297.982 167.278 297.753 167.431 297.524C167.603 297.277 167.736 296.877 167.832 296.648C167.87 296.572 167.889 296.495 167.908 296.4C167.965 296.076 168.042 295.733 168.023 295.409C168.023 295.086 167.965 294.743 167.889 294.419L167.908 294.457Z" fill="white"/>
<path d="M335.912 294.457C335.817 294.076 335.645 293.752 335.397 293.485C335.187 293.18 334.919 292.933 334.595 292.742C334.366 292.647 334.137 292.552 333.907 292.456C333.793 292.418 333.678 292.418 333.564 292.418C333.22 292.247 332.857 292.152 332.476 292.171C332.075 292.171 331.712 292.247 331.368 292.418C331.292 292.437 331.216 292.495 331.12 292.533C330.91 292.609 330.7 292.704 330.49 292.799C329.994 293.085 329.497 293.58 329.211 294.076C328.906 294.609 328.715 295.238 328.734 295.848C328.734 296.153 328.772 296.476 328.867 296.762C328.944 296.991 329.077 297.372 329.249 297.6C329.364 297.772 329.593 298.115 329.803 298.286C329.975 298.439 330.28 298.706 330.528 298.82C330.681 298.896 331.101 299.106 331.368 299.163C331.655 299.22 331.922 299.258 332.208 299.277C332.247 299.277 332.285 299.277 332.323 299.277C332.361 299.277 332.38 299.277 332.418 299.277C332.647 299.258 332.972 299.22 333.201 299.163C333.201 299.163 333.239 299.163 333.258 299.163C333.564 299.087 333.85 298.953 334.117 298.82C334.137 298.82 334.175 298.782 334.194 298.763C334.308 298.686 334.423 298.591 334.518 298.515C334.614 298.439 334.747 298.344 334.843 298.267C334.862 298.248 334.9 298.229 334.919 298.191C335.11 297.982 335.282 297.753 335.435 297.524C335.607 297.277 335.74 296.877 335.836 296.648C335.874 296.572 335.893 296.495 335.912 296.4C335.969 296.076 336.046 295.733 336.027 295.409C336.027 295.086 335.969 294.743 335.893 294.419L335.912 294.457Z" fill="white"/>
<path d="M142.326 267.498C142.326 267.498 153.781 263.688 178.542 279.387C180.49 280.625 182.399 281.883 184.556 282.74C190.78 285.179 202.884 287.922 211.074 277.024C211.074 277.024 220.62 259.877 195.801 252.256C170.982 244.635 148.073 261.782 142.345 267.498H142.326Z" fill="white"/>
<path d="M355.309 248.998C355.309 248.998 343.319 247.569 322.242 267.917C320.581 269.518 318.959 271.137 317.03 272.394C311.418 276.033 300.135 281.139 289.902 272.109C289.902 272.109 277.091 257.229 299.886 244.788C322.662 232.347 348.55 244.559 355.328 248.998H355.309Z" fill="white"/>
<path d="M260.923 482.731C259.968 480.978 258.613 479.549 257.009 478.368C256.493 478.006 255.596 477.949 255.023 478.102C254.432 478.273 253.782 478.73 253.477 479.283C253.152 479.873 253 480.597 253.21 481.264C253.42 481.912 253.802 482.35 254.355 482.75C254.298 482.712 254.241 482.655 254.164 482.617C254.737 483.074 255.252 483.589 255.73 484.16C256.131 484.713 256.455 485.284 256.742 485.894C256.99 486.542 257.181 487.189 257.295 487.875C257.295 488.047 257.333 488.218 257.333 488.409C257.391 489.742 258.479 491.038 259.911 490.981C261.247 490.924 262.545 489.857 262.488 488.409C262.393 486.408 261.877 484.484 260.923 482.731Z" fill="black"/>
<path d="M269.055 430.528C267.852 428.985 265.504 428.356 263.652 427.956C262.43 427.689 261.17 427.556 259.929 427.537C259.605 427.385 259.261 427.308 258.879 427.308C256.817 427.308 254.698 427.632 252.789 428.356C251.663 428.775 250.594 429.328 249.944 430.395C249.276 431.519 249.2 432.986 249.887 434.11C250.555 435.196 251.663 435.596 252.789 436.015C253.763 436.377 254.736 436.72 255.729 437.006C257.676 437.597 259.719 438.016 261.743 438.073C263.69 438.13 266.038 437.901 267.699 436.777C269.723 435.406 270.639 432.567 269.036 430.509L269.055 430.528Z" fill="#E6E6E6"/>
</g>
<defs>
<radialGradient id="paint0_radial_1272_57" cx="0" cy="0" r="1" gradientUnits="userSpaceOnUse" gradientTransform="translate(256.875 262.735) scale(192.039 191.647)">
<stop stop-color="#FBF5CB"/>
<stop offset="0.06" stop-color="#FBEEC1"/>
<stop offset="0.35" stop-color="#FBD497"/>
<stop offset="0.62" stop-color="#FBC079"/>
<stop offset="0.84" stop-color="#FBB566"/>
<stop offset="1" stop-color="#FCB160"/>
</radialGradient>
<radialGradient id="paint1_radial_1272_57" cx="0" cy="0" r="1" gradientUnits="userSpaceOnUse" gradientTransform="translate(258.287 400.864) scale(148.969 148.665)">
<stop stop-color="white"/>
<stop offset="0.48" stop-color="#FCFCFC"/>
<stop offset="0.76" stop-color="#F4F4F4"/>
<stop offset="0.99" stop-color="#E6E6E6"/>
<stop offset="1" stop-color="#E6E6E6"/>
</radialGradient>
<linearGradient id="paint2_linear_1272_57" x1="251.415" y1="148.764" x2="251.415" y2="29.345" gradientUnits="userSpaceOnUse">
<stop stop-color="#534741"/>
<stop offset="0.31" stop-color="#554943"/>
<stop offset="0.53" stop-color="#5F534A"/>
<stop offset="0.72" stop-color="#6E6256"/>
<stop offset="0.9" stop-color="#847967"/>
<stop offset="1" stop-color="#958A74"/>
</linearGradient>
<linearGradient id="paint3_linear_1272_57" x1="70.7351" y1="297.982" x2="70.7351" y2="139.848" gradientUnits="userSpaceOnUse">
<stop stop-color="#664A13"/>
<stop offset="0.27" stop-color="#674B15"/>
<stop offset="0.46" stop-color="#6B521F"/>
<stop offset="0.63" stop-color="#735C2E"/>
<stop offset="0.78" stop-color="#7E6B45"/>
<stop offset="0.92" stop-color="#8C7D61"/>
<stop offset="1" stop-color="#958A74"/>
</linearGradient>
<linearGradient id="paint4_linear_1272_57" x1="415.332" y1="305.602" x2="415.332" y2="154.937" gradientUnits="userSpaceOnUse">
<stop stop-color="#534741"/>
<stop offset="0.57" stop-color="#544842"/>
<stop offset="0.77" stop-color="#5B4E46"/>
<stop offset="0.91" stop-color="#67584F"/>
<stop offset="1" stop-color="#736357"/>
</linearGradient>
<clipPath id="clip0_1272_57">
<rect width="437" height="470" fill="white" transform="translate(37 21)"/>
</clipPath>
</defs>
</svg>
